<?xml version="1.0" encoding="UTF-8"?>
<svg id="Layer_2" data-name="Layer 2" xmlns="http://www.w3.org/2000/svg" viewBox="0 0 173.45 55.8">
  <defs>
    <style>
      .cls-1 {
        fill: #000;
      }

      .cls-1, .cls-2, .cls-3 {
        stroke-width: 0px;
      }

      .cls-2 {
        fill: #1c1944;
      }

      .cls-3 {
        fill: #c63e3a;
      }
    </style>
  </defs>
  <g id="Layer_1-2" data-name="Layer 1">
    <g>
      <g>
        <path class="cls-1" d="M42.84,47.52v-3.38l-6.62,11.67h-11.88l-5.11-9v9h-10.08L0,47.6V0h11.67l7.06,6.34,11.52,20.45L45.44,0h9.58l7.06,6.34v49.47h-10.08l-9.15-8.28Z"/>
        <path class="cls-1" d="M68.98,55.8V8.21L78.12,0h15.63c10.94,0,20.23,6.62,20.23,20.23s-8.5,20.23-20.02,20.23h-5.76v7.13l-9.15,8.21h-10.08ZM91.66,23.11c2.45,0,3.17-1.58,3.17-2.95,0-1.73-1.15-2.81-3.17-2.81h-3.46v5.76h3.46Z"/>
        <path class="cls-1" d="M113.9,55.8l-5.98-8.64L135.29,0h10.8l27.36,47.24-5.9,8.57h-10.87l-4.46-7.7h-23.04l-4.46,7.7h-10.8ZM140.69,28.23l-1.44,2.52h2.88l-1.44-2.52Z"/>
      </g>
      <g>
        <path class="cls-2" d="M45.8,2.74l5.04,4.54-25.99,45.87L8.22,23.84v28.66l-6.7-5.98V2.96l5.33,4.82,18,31.9L45.8,2.74ZM14.91,5.84h-7.27L3.18,1.81h7.27l4.46,4.03ZM9.23,7.78h7.56l11.88,20.95-3.82,6.7L9.23,7.78ZM10.16,53.72v-22.32l6.7,11.81v10.51h-6.7ZM53,53.72V21.11l-18.51,32.62h-7.56L52.93,7.78h6.77v45.94h-6.7ZM51.06,28.67v23.83l-6.7-5.98v-5.98l6.7-11.88ZM58.26,5.84h-6.05l-4.54-4.03h6.12l4.46,4.03Z"/>
        <path class="cls-2" d="M92.31,32.63c8.14,0,12.6-4.97,12.6-12.53s-4.68-12.53-13.25-12.53h-19.59l6.48-5.76h14.69c10.95,0,18.36,6.84,18.36,18.29s-7.2,18.29-18.07,18.29h-16.35v15.34h-6.7V9.51h21.03c7.63,0,11.45,4.25,11.45,10.58,0,6.7-3.82,10.58-10.8,10.58h-11.45l6.48-5.76h3.82c3.46,0,5.26-2.09,5.26-4.9,0-3.02-2.23-4.75-5.18-4.75h-13.9v17.35h15.12ZM79.14,17.22h6.7v6.19l-6.7,6.05v-12.24ZM79.14,52.5v-12.17h6.7v6.19l-6.7,5.98Z"/>
        <path class="cls-2" d="M135.44,15.71l-21.53,37.08-4.03-5.76L135.37,3.03l15.99,27.58h-7.2l-8.71-14.91ZM155.68,40.26l-4.03,5.76h-24.12l-4.46,7.7h-7.34l19.73-33.99,3.6,6.26-8.21,14.26h24.84ZM154.88,32.55L137.1,1.81h7.34l25.63,44.21h-7.34l-4.54-7.7h-23.91l3.38-5.76h17.21ZM156.83,52.5l-3.31-5.69,3.96-5.69,3.24,5.69-3.89,5.69ZM166.04,53.72h-7.63l3.96-5.76h7.63l-3.96,5.76Z"/>
      </g>
      <g>
        <path class="cls-3" d="M16.86,43.21v10.51h-.72l-.36-11.95-.29,11.95h-1.66l-.36-16.06-.29,16.06h-1.66l-.36-20.09-.29,20.09h-.72v-22.32l6.7,11.81ZM24.85,35.43l-10.94-19.37,11.38,17.79-8.86-17.79,10.15,15.63-7.63-15.63,8.93,13.47-6.34-13.39,7.13,12.6-3.82,6.7ZM59.7,7.78v45.94h-6.7V21.11l-18.51,32.62h-7.56L52.93,7.78h.43l-24.91,45.51L55.17,7.78h.72l-24.91,45.51L55.74,11.1l.65,42.2.86-45.51h.58l.79,45.51.79-45.51h.29ZM55.02,13.9l-21.53,39.39,20.16-34.56.5,34.56.86-39.39ZM51.06,28.67v23.83l-.72-.58-.29-20.95-.36,20.31-1.66-1.44-.29-14.83-.36,14.26-1.73-1.51-.22-8.64-.29,8.21-.79-.79v-5.98l6.7-11.88Z"/>
        <path class="cls-3" d="M79.14,29.46v-12.24h1.08l.07,10.87.14-10.87h2.02l.07,8.86.14-8.86h2.02l.07,6.91.14-6.91h.94v6.19l-6.7,6.05ZM85.83,40.33v6.19l-.72.65-.36-6.62-.29,7.27-1.58,1.37-.36-8.57-.29,9.15-1.58,1.44-.36-10.58-.29,11.16-.86.72v-12.17h6.7ZM87.2,24.92h3.82c3.46,0,5.26-2.09,5.26-4.9,0,3.24-1.8,5.47-4.61,5.62l-5.04.22,5.04.14c3.96.14,6.48-2.02,6.84-5.83.36,4.75-3.1,7.27-6.91,7.42l-7.2.22,7.2.14c4.75.07,8.79-1.94,9.15-7.71.14,6.48-4.39,9.15-9.22,9.29l-9.36.22,9.36.14c8.93.14,11.23-5.11,11.45-9.79,0,6.7-3.82,10.58-10.8,10.58h-11.45l6.48-5.76ZM93.25,38.1c12.46-.36,17.5-7.85,17.5-18,0-5.62-1.37-10.01-3.89-13.1,3.6,3.6,4.75,8.71,4.75,13.1,0,11.52-7.2,18.29-18.07,18.29h-9.22l8.93-.29ZM84.32,36.44l8.5-.29c13.18-.43,15.7-9.22,15.7-16.06,0-4.75-.72-7.85-3.38-11.74,3.31,2.52,5.26,7.92,5.26,12.17,0,10.15-5.76,16.56-17.57,16.2l-8.5-.29ZM92.46,34.28c12.17-.43,13.83-8.93,13.83-14.19,0-4.46-.58-7.13-2.95-10.51,3.1,2.23,4.82,7.06,4.82,10.94,0,9.36-5.26,14.69-15.7,14.33l-8.14-.29,8.14-.29ZM84.32,32.63h7.99c8.14,0,12.6-4.97,12.6-12.53,0-3.74-1.08-6.77-3.31-9.07,2.81,2.23,4.32,6.26,4.32,9.5,0,6.05-2.95,12.75-13.9,12.39l-7.7-.29Z"/>
        <path class="cls-3" d="M152.87,43.21l-26.5-.5,10.66-19.37-18.36,30.39h-.86l18.07-32.47-19.73,32.47h-.43l19.73-33.99,3.6,6.26-8.21,14.26h24.84l-4.03,5.76h-24.12l-4.46,7.7h-.43l4.54-8.28,24.63-.36-25.27-.43-5.47,9.07h-.86l5.69-10.08,27-.43ZM128.31,41.7l25.71-.43-24.27-.43,8.5-15.41-9.94,16.27ZM137.53,33.49l14.11,1.01-15.19.86,16.35,1.01-17.5.94,18.58,1.01h-19.59l3.38-5.76h12.89l-13.03.94ZM145.02,30.18l-6.91-14.11,9.29,14.11-6.84-14.11,9.29,14.11-6.91-14.11,8.42,14.55h-7.2l-8.5-14.55,9.36,14.11ZM156.83,52.5l-3.31-5.69,3.96-5.69,3.24,5.69-3.67-4.25,2.3,6.19-3.67-4.32,2.38,6.26-3.67-4.32,2.45,6.12ZM166.04,53.72h-7.63l3.96-5.76h7.63l-3.96,5.76Z"/>
      </g>
    </g>
  </g>
</svg>