<?xml version="1.0" encoding="UTF-8"?>
<svg id="Layer_2" data-name="Layer 2" xmlns="http://www.w3.org/2000/svg" viewBox="0 0 155.45 55.8">
  <defs>
    <style>
      .cls-1 {
        fill: #000;
      }

      .cls-1, .cls-2, .cls-3 {
        stroke-width: 0px;
      }

      .cls-2 {
        fill: #1c1944;
      }

      .cls-3 {
        fill: #c63e3a;
      }
    </style>
  </defs>
  <g id="Layer_1-2" data-name="Layer 1">
    <g>
      <g>
        <path class="cls-1" d="M24.34,45.36c.5-.72.72-1.66.72-2.88,0-2.3-1.8-4.46-4.61-6.34l-9-5.98c-4.18-2.74-8.21-7.27-8.21-14.4C3.24,5.69,11.88,0,20.67,0h8.57c9.87,0,17.14,6.98,18.29,12.53l-7.78,6.98h-10.08c-.14-4.39-2.74-7.92-6.55-9-.43.72-.65,1.58-.65,2.81,0,2.3,1.08,3.96,4.68,6.34l8.86,5.9c4.25,2.81,8.28,7.34,8.28,14.47,0,9.36-7.2,15.77-17.43,15.77h-8.57c-9.86,0-17.14-6.98-18.29-12.53l7.78-6.98h10.08c.07,4.46,2.74,7.92,6.48,9.07Z"/>
        <path class="cls-1" d="M50.98,55.8V8.21L60.12,0h15.63c10.94,0,20.23,6.62,20.23,20.23s-8.5,20.23-20.02,20.23h-5.76v7.13l-9.15,8.21h-10.08ZM73.66,23.11c2.45,0,3.17-1.58,3.17-2.95,0-1.73-1.15-2.81-3.17-2.81h-3.46v5.76h3.46Z"/>
        <path class="cls-1" d="M95.9,55.8l-5.98-8.64L117.29,0h10.8l27.36,47.24-5.9,8.57h-10.87l-4.46-7.7h-23.04l-4.46,7.7h-10.8ZM122.69,28.23l-1.44,2.52h2.88l-1.44-2.52Z"/>
      </g>
      <g>
        <path class="cls-2" d="M8.65,44.44c1.51,3.82,4.46,7.42,9,9.43-6.19-.07-13.11-3.46-15.63-9.43h6.62ZM8.22,38.1h5.62l-4.9,4.39H3.32l4.9-4.39ZM21.83,35l-9.36-6.26c-4.18-2.74-7.7-6.84-7.7-13.11C4.76,6.63,12.54,1.81,20.24,1.81c8.57,0,14.04,4.61,15.91,9.94l-5.4,4.75c-1.37-5.26-5.11-8.5-10.73-8.5-4.82,0-8.57,2.95-8.57,7.7,0,3.96,2.52,6.98,6.48,9.65l9,5.9c3.82,2.52,6.34,4.9,6.34,8.57s-2.88,5.76-6.62,5.76h-.79c.43-.86.72-1.94.72-3.24,0-3.17-1.66-5.33-4.75-7.34ZM35.22,39.83c0-3.96-2.52-7.06-6.55-9.72l-9.14-5.98c-3.6-2.38-6.12-4.75-6.12-8.42s2.88-5.76,6.62-5.76c.22,0,.5,0,.72.07-.43.86-.65,1.87-.65,3.17,0,3.17,1.66,5.33,4.97,7.49l9.07,6.05c4.39,2.95,7.78,6.91,7.78,13.18,0,8.28-6.34,13.83-15.48,13.83-8.64,0-14.04-4.61-15.91-9.94l5.4-4.82c1.3,5.33,5.04,8.57,10.73,8.57,4.82,0,8.57-2.95,8.57-7.7ZM38.03,11.1c-1.58-3.82-4.54-7.34-9-9.43,6.12.07,13.1,3.53,15.62,9.43h-6.62ZM38.46,17.43h-5.62l4.9-4.39h5.62l-4.9,4.39Z"/>
        <path class="cls-2" d="M74.31,32.63c8.14,0,12.6-4.97,12.6-12.53s-4.68-12.53-13.25-12.53h-19.59l6.48-5.76h14.69c10.95,0,18.36,6.84,18.36,18.29s-7.2,18.29-18.07,18.29h-16.35v15.34h-6.7V9.51h21.03c7.63,0,11.45,4.25,11.45,10.58,0,6.7-3.82,10.58-10.8,10.58h-11.45l6.48-5.76h3.82c3.46,0,5.26-2.09,5.26-4.9,0-3.02-2.23-4.75-5.18-4.75h-13.9v17.35h15.12ZM61.14,17.22h6.7v6.19l-6.7,6.05v-12.24ZM61.14,52.5v-12.17h6.7v6.19l-6.7,5.98Z"/>
        <path class="cls-2" d="M117.44,15.71l-21.53,37.08-4.03-5.76L117.37,3.03l15.99,27.58h-7.2l-8.71-14.91ZM137.68,40.26l-4.03,5.76h-24.12l-4.46,7.7h-7.34l19.73-33.99,3.6,6.26-8.21,14.26h24.84ZM136.88,32.55L119.1,1.81h7.34l25.63,44.21h-7.34l-4.54-7.7h-23.91l3.38-5.76h17.21ZM138.83,52.5l-3.31-5.69,3.96-5.69,3.24,5.69-3.89,5.69ZM148.04,53.72h-7.63l3.96-5.76h7.63l-3.96,5.76Z"/>
      </g>
      <g>
        <path class="cls-3" d="M2.02,44.44c1.3,2.52,3.6,4.54,5.69,5.83-1.3-1.3-2.52-3.31-3.31-5.4,1.44,2.38,3.24,4.18,5.18,5.4-1.51-1.8-2.38-3.53-3.02-5.4,1.3,2.02,2.74,3.96,4.97,5.4-1.3-1.73-2.3-3.82-2.88-5.83,1.51,3.82,4.46,7.42,9,9.43-6.19-.07-13.11-3.53-15.63-9.43ZM19.52,24.13c-3.6-2.38-6.12-4.75-6.12-8.42s2.88-5.76,6.62-5.76c.22,0,.5,0,.72.07-.43.86-.65,1.87-.65,3.17,0,3.17,2.74,6.05,4.97,7.49l9.07,6.05c4.39,2.95,7.78,6.91,7.78,13.18,0,8.28-6.34,13.83-15.48,13.83-8.64,0-14.04-4.61-15.91-9.94l.5-.5c3.1,7.63,9.86,9.65,15.48,9.65,8.28,0,14.47-4.9,14.47-13.1,0-5.4-2.88-9.79-7.34-12.67l-9.15-6.05c-4.03-2.66-5.54-4.9-5.54-7.49,0-.65.14-1.66.29-2.3-.43.86-.58,1.8-.58,2.52,0,2.52,1.01,4.82,5.04,7.49l9.22,6.12c4.25,2.81,7.63,6.84,7.63,12.39,0,6.98-5.47,12.67-13.83,12.67-7.2,0-13.03-4.32-14.91-9.86l1.01-1.01c1.58,5.33,6.55,9.22,13.83,9.22,6.48,0,12.1-3.96,12.1-11.02,0-4.68-2.81-8.86-6.91-11.52l-9.29-6.05c-4.32-2.81-5.69-5.18-5.69-7.7,0-.72.14-1.66.36-2.38-.5.94-.65,1.8-.65,2.52,0,2.52.94,4.9,5.33,7.85l9.15,6.05c3.89,2.59,7.27,6.05,7.27,11.23,0,7.13-6.19,10.58-11.67,10.58-6.7,0-11.67-4.61-13.03-9.43l1.01-.94c1.87,5.98,6.34,8.78,12.02,8.78,5.26,0,9.86-3.17,9.86-9,0-4.25-2.59-7.85-6.55-10.44l-9.22-5.98c-4.68-3.02-5.98-5.4-5.98-7.92,0-.72.22-1.73.36-2.3-.43.79-.65,1.73-.65,2.45,0,2.52.79,4.9,5.54,8.06l9.22,6.05c3.53,2.3,6.84,5.47,6.84,10.08,0,5.18-4.18,8.5-9.43,8.5-4.82,0-9.65-3.1-11.3-8.86l.58-.5c1.3,5.33,5.04,8.57,10.73,8.57,4.82,0,8.57-2.95,8.57-7.7,0-3.96-2.52-7.06-6.55-9.72l-9.14-5.98ZM26.72,45.59h-.07c-.29,0-.5,0-.72-.07.43-.86.65-2.45.65-3.17,0-3.17-1.66-5.26-4.75-7.34l-6.26-4.18,6.41,3.96c4.1,2.52,5.26,4.46,5.26,7.63,0,.86-.14,2.02-.5,3.17ZM29.1,45.3c-.65.14-1.15.22-1.51.29.5-1.22.72-2.45.72-3.31,0-3.1-.94-5.69-5.04-8.5l-6.05-4.18,6.41,3.96c4.39,2.74,5.9,5.18,5.9,8.28,0,1.22-.22,2.59-.43,3.46ZM31.48,44c-.58.43-.79.58-1.51.94.43-1.22.65-2.09.65-3.38,0-2.88-1.51-6.05-5.69-9l-5.76-4.1,6.26,3.96c4.25,2.66,6.34,5.83,6.34,8.93,0,1.37-.14,1.8-.29,2.66ZM26.94,31.26c3.82,2.52,6.34,4.9,6.34,8.57,0,1.37-.36,2.38-1.08,3.38.43-.86.58-1.66.58-2.45,0-2.66-.86-5.76-6.05-9.36l-5.83-4.1,6.05,3.96ZM38.46,17.43h-5.62l4.9-4.39h5.62l-4.9,4.39ZM38.03,11.1c-.79-1.87-2.02-3.96-3.67-5.62,1.44,1.22,3.67,3.96,4.25,5.62h-.58ZM39.68,11.1c-.79-1.8-1.87-3.82-3.46-5.62,1.87,1.44,3.67,3.6,4.61,5.62h-1.15ZM41.92,11.1c-.79-1.8-2.16-3.82-3.74-5.62,1.87,1.44,3.96,3.6,4.9,5.62h-1.15ZM44.08,11.1c-.72-1.58-2.23-4.1-4.03-5.69,2.38,1.73,3.82,3.82,4.61,5.69h-.58Z"/>
        <path class="cls-3" d="M61.14,29.46v-12.24h1.08l.07,10.87.14-10.87h2.02l.07,8.86.14-8.86h2.02l.07,6.91.14-6.91h.94v6.19l-6.7,6.05ZM67.83,40.33v6.19l-.72.65-.36-6.62-.29,7.27-1.58,1.37-.36-8.57-.29,9.15-1.58,1.44-.36-10.58-.29,11.16-.86.72v-12.17h6.7ZM69.2,24.92h3.82c3.46,0,5.26-2.09,5.26-4.9,0,3.24-1.8,5.47-4.61,5.62l-5.04.22,5.04.14c3.96.14,6.48-2.02,6.84-5.83.36,4.75-3.1,7.27-6.91,7.42l-7.2.22,7.2.14c4.75.07,8.78-1.94,9.14-7.71.14,6.48-4.39,9.15-9.22,9.29l-9.36.22,9.36.14c8.93.14,11.23-5.11,11.45-9.79,0,6.7-3.82,10.58-10.8,10.58h-11.45l6.48-5.76ZM75.25,38.1c12.46-.36,17.5-7.85,17.5-18,0-5.62-1.37-10.01-3.89-13.1,3.6,3.6,4.75,8.71,4.75,13.1,0,11.52-7.2,18.29-18.07,18.29h-9.22l8.93-.29ZM66.32,36.44l8.5-.29c13.18-.43,15.7-9.22,15.7-16.06,0-4.75-.72-7.85-3.38-11.74,3.31,2.52,5.26,7.92,5.26,12.17,0,10.15-5.76,16.56-17.57,16.2l-8.5-.29ZM74.46,34.28c12.17-.43,13.83-8.93,13.83-14.19,0-4.46-.58-7.13-2.95-10.51,3.1,2.23,4.82,7.06,4.82,10.94,0,9.36-5.26,14.69-15.7,14.33l-8.14-.29,8.14-.29ZM66.32,32.63h7.99c8.14,0,12.6-4.97,12.6-12.53,0-3.74-1.08-6.77-3.31-9.07,2.81,2.23,4.32,6.26,4.32,9.5,0,6.05-2.95,12.75-13.9,12.39l-7.7-.29Z"/>
        <path class="cls-3" d="M134.87,43.21l-26.5-.5,10.66-19.37-18.36,30.39h-.86l18.07-32.47-19.73,32.47h-.43l19.73-33.99,3.6,6.26-8.21,14.26h24.84l-4.03,5.76h-24.12l-4.46,7.7h-.43l4.54-8.28,24.63-.36-25.27-.43-5.47,9.07h-.86l5.69-10.08,27-.43ZM110.31,41.7l25.71-.43-24.27-.43,8.5-15.41-9.94,16.27ZM119.53,33.49l14.11,1.01-15.19.86,16.35,1.01-17.5.94,18.58,1.01h-19.59l3.38-5.76h12.89l-13.03.94ZM127.02,30.18l-6.91-14.11,9.29,14.11-6.84-14.11,9.29,14.11-6.91-14.11,8.42,14.55h-7.2l-8.5-14.55,9.36,14.11ZM138.83,52.5l-3.31-5.69,3.96-5.69,3.24,5.69-3.67-4.25,2.3,6.19-3.67-4.32,2.38,6.26-3.67-4.32,2.45,6.12ZM148.04,53.72h-7.63l3.96-5.76h7.63l-3.96,5.76Z"/>
      </g>
    </g>
  </g>
</svg>