<?xml version="1.0" encoding="UTF-8"?>
<svg id="Layer_2" data-name="Layer 2" xmlns="http://www.w3.org/2000/svg" viewBox="0 0 152.14 55.8">
  <defs>
    <style>
      .cls-1 {
        fill: #000;
      }

      .cls-1, .cls-2, .cls-3 {
        stroke-width: 0px;
      }

      .cls-2 {
        fill: #1c1944;
      }

      .cls-3 {
        fill: #c63e3a;
      }
    </style>
  </defs>
  <g id="Layer_1-2" data-name="Layer 1">
    <g>
      <g>
        <path class="cls-1" d="M24.34,45.36c.5-.72.72-1.66.72-2.88,0-2.3-1.8-4.46-4.61-6.34l-9-5.98c-4.18-2.74-8.21-7.27-8.21-14.4C3.24,5.69,11.88,0,20.67,0h8.57c9.87,0,17.14,6.98,18.29,12.53l-7.78,6.98h-10.08c-.14-4.39-2.74-7.92-6.55-9-.43.72-.65,1.58-.65,2.81,0,2.3,1.08,3.96,4.68,6.34l8.86,5.9c4.25,2.81,8.28,7.34,8.28,14.47,0,9.36-7.2,15.77-17.43,15.77h-8.57c-9.86,0-17.14-6.98-18.29-12.53l7.78-6.98h10.08c.07,4.46,2.74,7.92,6.48,9.07Z"/>
        <path class="cls-1" d="M65.81,55.8c-9.94,0-16.35-6.12-18.29-12.89l7.34-6.62h10.87c.58,3.67,2.81,6.41,5.4,7.63.58-.65.79-1.37.79-2.02,0-1.8-1.15-3.46-4.75-5.83l-5.83-3.89c-7.13-4.75-10.66-10.01-10.66-16.99,0-10.23,8.14-15.19,17.28-15.19h8.28c9.94,0,16.35,6.12,18.29,12.89l-7.34,6.62h-10.87c-.65-3.6-2.81-6.34-5.47-7.63-.5.72-.72,1.51-.72,2.23,0,1.58.86,3.24,5.04,5.98l7.27,4.82c5.11,3.38,8.93,7.99,8.93,15.19,0,9.29-8.14,15.7-17.35,15.7h-8.21Z"/>
        <path class="cls-1" d="M129.1,13.18c-7.78-.29-13.9,4.75-13.9,13.9s6.91,13.75,14.11,13.75c1.22,0,2.3-.07,3.38-.22v-8.57l8.28-7.42h10.08v15.7l-3.31,4.1c-5.83,7.2-13.1,11.38-22.75,11.38-15.19,0-29.02-10.3-29.02-28.87,0-16.27,10.95-26.93,24.63-26.93h7.92c11.16,0,19.73,6.34,23.62,15.91l-7.78,6.98h-9.5c-.94-4.03-3.02-7.49-5.76-9.72Z"/>
      </g>
      <g>
        <path class="cls-2" d="M8.65,44.44c1.51,3.82,4.46,7.42,9,9.43-6.19-.07-13.11-3.46-15.63-9.43h6.62ZM8.22,38.1h5.62l-4.9,4.39H3.32l4.9-4.39ZM21.83,35l-9.36-6.26c-4.18-2.74-7.7-6.84-7.7-13.11C4.76,6.63,12.54,1.81,20.24,1.81c8.57,0,14.04,4.61,15.91,9.94l-5.4,4.75c-1.37-5.26-5.11-8.5-10.73-8.5-4.82,0-8.57,2.95-8.57,7.7,0,3.96,2.52,6.98,6.48,9.65l9,5.9c3.82,2.52,6.34,4.9,6.34,8.57s-2.88,5.76-6.62,5.76h-.79c.43-.86.72-1.94.72-3.24,0-3.17-1.66-5.33-4.75-7.34ZM35.22,39.83c0-3.96-2.52-7.06-6.55-9.72l-9.14-5.98c-3.6-2.38-6.12-4.75-6.12-8.42s2.88-5.76,6.62-5.76c.22,0,.5,0,.72.07-.43.86-.65,1.87-.65,3.17,0,3.17,1.66,5.33,4.97,7.49l9.07,6.05c4.39,2.95,7.78,6.91,7.78,13.18,0,8.28-6.34,13.83-15.48,13.83-8.64,0-14.04-4.61-15.91-9.94l5.4-4.82c1.3,5.33,5.04,8.57,10.73,8.57,4.82,0,8.57-2.95,8.57-7.7ZM38.03,11.1c-1.58-3.82-4.54-7.34-9-9.43,6.12.07,13.1,3.53,15.62,9.43h-6.62ZM38.46,17.43h-5.62l4.9-4.39h5.62l-4.9,4.39Z"/>
        <path class="cls-2" d="M73.45,41.77c0-2.52-1.37-4.61-5.18-7.13l-5.83-3.89c-6.62-4.39-10.23-9.15-10.23-15.7,0-9,7.2-13.25,15.05-13.39-4.9,2.23-8.35,6.48-8.35,12.1s2.66,9.22,6.84,12.02l7.27,4.82c4.82,3.24,7.34,6.77,7.34,11.38,0,7.2-6.84,11.74-14.98,11.74s-13.97-4.32-16.06-10.22l5.47-4.97c1.15,5.54,5.4,9,10.87,9s7.78-3.38,7.78-5.76ZM56.74,38.1h6.98c.79,2.59,2.52,5.33,5.18,6.98-.79.29-1.94.5-3.24.5-3.89,0-7.85-2.52-8.93-7.49ZM67.76,13.98c0,2.3,1.08,4.39,5.26,7.13l7.27,4.82c4.82,3.24,8.71,7.27,8.71,14.04,0,8.14-7.27,13.75-15.05,13.9,4.9-2.23,8.35-6.41,8.35-11.88s-2.95-9.5-7.56-12.53l-7.27-4.82c-4.39-2.95-6.62-6.48-6.62-10.87,0-7.42,6.84-11.95,14.98-11.95s13.9,4.32,15.99,10.3l-5.47,4.9c-1.15-5.54-5.18-9-10.8-9s-7.78,3.38-7.78,5.98ZM84.47,17.43h-7.06c-.72-2.52-2.52-5.33-5.18-6.91.79-.36,1.94-.58,3.31-.58,4.03,0,7.85,2.59,8.93,7.49Z"/>
        <path class="cls-2" d="M97.5,26.79c0-14.62,9.86-24.99,22.54-24.99,9,0,17.14,5.76,20.67,13.39l-5.11,4.9c-2.45-7.13-8.28-12.1-15.27-12.1-10.01,0-16.13,9.22-16.13,18.79,0,13.83,10.44,23.47,24.63,23.47,5.33,0,9.86-1.3,13.47-3.24-5.98,5.26-11.74,6.7-17.71,6.7-13.83,0-27.07-9.36-27.07-26.93ZM148.69,39.4c-3.17,4.39-9.65,8.93-19.87,8.93-13.03,0-22.68-8.71-22.68-21.53,0-9.07,5.62-16.85,14.19-16.85,2.02,0,4.03.5,5.76,1.37-6.77.65-13.25,5.4-13.25,15.63s7.92,15.63,15.99,15.63c6.7,0,10.66-2.52,13.18-5.18v-10.94h6.7v12.96ZM149.05,14.48h-6.62c-2.88-6.12-7.85-10.51-13.39-12.82,8.35.29,16.06,5.11,20.02,12.82ZM134.22,32.84l5.83-5.18v8.86c-1.37,1.37-3.24,2.66-5.83,3.46v-7.13ZM143.08,20.82h-5.62l4.9-4.39h5.62l-4.9,4.39Z"/>
      </g>
      <g>
        <path class="cls-3" d="M2.02,44.44c1.3,2.52,3.6,4.54,5.69,5.83-1.3-1.3-2.52-3.31-3.31-5.4,1.44,2.38,3.24,4.18,5.18,5.4-1.51-1.8-2.38-3.53-3.02-5.4,1.3,2.02,2.74,3.96,4.97,5.4-1.3-1.73-2.3-3.82-2.88-5.83,1.51,3.82,4.46,7.42,9,9.43-6.19-.07-13.11-3.53-15.63-9.43ZM19.52,24.13c-3.6-2.38-6.12-4.75-6.12-8.42s2.88-5.76,6.62-5.76c.22,0,.5,0,.72.07-.43.86-.65,1.87-.65,3.17,0,3.17,2.74,6.05,4.97,7.49l9.07,6.05c4.39,2.95,7.78,6.91,7.78,13.18,0,8.28-6.34,13.83-15.48,13.83-8.64,0-14.04-4.61-15.91-9.94l.5-.5c3.1,7.63,9.86,9.65,15.48,9.65,8.28,0,14.47-4.9,14.47-13.1,0-5.4-2.88-9.79-7.34-12.67l-9.15-6.05c-4.03-2.66-5.54-4.9-5.54-7.49,0-.65.14-1.66.29-2.3-.43.86-.58,1.8-.58,2.52,0,2.52,1.01,4.82,5.04,7.49l9.22,6.12c4.25,2.81,7.63,6.84,7.63,12.39,0,6.98-5.47,12.67-13.83,12.67-7.2,0-13.03-4.32-14.91-9.86l1.01-1.01c1.58,5.33,6.55,9.22,13.83,9.22,6.48,0,12.1-3.96,12.1-11.02,0-4.68-2.81-8.86-6.91-11.52l-9.29-6.05c-4.32-2.81-5.69-5.18-5.69-7.7,0-.72.14-1.66.36-2.38-.5.94-.65,1.8-.65,2.52,0,2.52.94,4.9,5.33,7.85l9.15,6.05c3.89,2.59,7.27,6.05,7.27,11.23,0,7.13-6.19,10.58-11.67,10.58-6.7,0-11.67-4.61-13.03-9.43l1.01-.94c1.87,5.98,6.34,8.78,12.02,8.78,5.26,0,9.86-3.17,9.86-9,0-4.25-2.59-7.85-6.55-10.44l-9.22-5.98c-4.68-3.02-5.98-5.4-5.98-7.92,0-.72.22-1.73.36-2.3-.43.79-.65,1.73-.65,2.45,0,2.52.79,4.9,5.54,8.06l9.22,6.05c3.53,2.3,6.84,5.47,6.84,10.08,0,5.18-4.18,8.5-9.43,8.5-4.82,0-9.65-3.1-11.3-8.86l.58-.5c1.3,5.33,5.04,8.57,10.73,8.57,4.82,0,8.57-2.95,8.57-7.7,0-3.96-2.52-7.06-6.55-9.72l-9.14-5.98ZM26.72,45.59h-.07c-.29,0-.5,0-.72-.07.43-.86.65-2.45.65-3.17,0-3.17-1.66-5.26-4.75-7.34l-6.26-4.18,6.41,3.96c4.1,2.52,5.26,4.46,5.26,7.63,0,.86-.14,2.02-.5,3.17ZM29.1,45.3c-.65.14-1.15.22-1.51.29.5-1.22.72-2.45.72-3.31,0-3.1-.94-5.69-5.04-8.5l-6.05-4.18,6.41,3.96c4.39,2.74,5.9,5.18,5.9,8.28,0,1.22-.22,2.59-.43,3.46ZM31.48,44c-.58.43-.79.58-1.51.94.43-1.22.65-2.09.65-3.38,0-2.88-1.51-6.05-5.69-9l-5.76-4.1,6.26,3.96c4.25,2.66,6.34,5.83,6.34,8.93,0,1.37-.14,1.8-.29,2.66ZM26.94,31.26c3.82,2.52,6.34,4.9,6.34,8.57,0,1.37-.36,2.38-1.08,3.38.43-.86.58-1.66.58-2.45,0-2.66-.86-5.76-6.05-9.36l-5.83-4.1,6.05,3.96ZM38.46,17.43h-5.62l4.9-4.39h5.62l-4.9,4.39ZM38.03,11.1c-.79-1.87-2.02-3.96-3.67-5.62,1.44,1.22,3.67,3.96,4.25,5.62h-.58ZM39.68,11.1c-.79-1.8-1.87-3.82-3.46-5.62,1.87,1.44,3.67,3.6,4.61,5.62h-1.15ZM41.92,11.1c-.79-1.8-2.16-3.82-3.74-5.62,1.87,1.44,3.96,3.6,4.9,5.62h-1.15ZM44.08,11.1c-.72-1.58-2.23-4.1-4.03-5.69,2.38,1.73,3.82,3.82,4.61,5.69h-.58Z"/>
        <path class="cls-3" d="M67.04,44.36c-1.73-1.8-2.88-3.96-3.31-6.26.79,2.59,2.52,5.33,5.18,6.98-.79.29-1.94.5-3.24.5-3.89,0-7.85-2.52-8.93-7.49.58,2.02,2.09,5.54,6.55,6.62-2.09-1.08-3.6-3.74-4.1-6.19.79,2.09,2.59,4.9,5.98,5.98-1.15-.65-3.1-3.31-3.67-5.98,1.01,2.3,2.95,4.82,5.54,5.83ZM80.29,25.93c4.82,3.24,8.71,7.27,8.71,14.04,0,8.14-7.27,13.75-15.05,13.9,4.9-2.23,8.35-6.41,8.35-11.88s-2.95-9.5-7.56-12.53l-7.27-4.82c-4.39-2.95-6.62-6.48-6.62-10.87,0-7.42,6.84-11.95,14.98-11.95s13.9,4.32,15.99,10.3l-.5.5c-2.16-6.34-8.93-10.01-15.48-10.01-8.14,0-13.97,5.11-13.97,11.23,0,4.1,1.94,7.92,6.12,10.58l7.27,4.61c5.4,3.46,7.92,6.84,7.92,12.67,0,1.37-.22,3.46-.94,5.18.94-1.73,1.37-3.89,1.37-5.26,0-5.83-1.37-8.35-8.71-13.54l-5.9-4.18c-3.46-2.45-6.77-5.54-6.77-10.08,0-5.83,5.33-10.73,13.54-10.73,6.48,0,12.67,4.03,14.62,10.3l-.86.79c-1.8-6.41-7.2-9.5-13.75-9.5s-11.59,4.03-11.59,9.07c0,3.6,1.15,6.55,5.69,9.43l7.27,4.61c5.62,3.6,8.28,7.2,8.28,13.25,0,1.73-.58,4.46-1.3,5.83,1.01-1.37,1.73-4.25,1.73-5.98,0-7.06-2.88-9.65-8.5-13.61l-6.48-4.54c-3.02-2.09-6.34-4.75-6.34-9s3.82-8.57,11.16-8.57,11.23,4.54,12.96,9.79l-.94.79c-1.44-5.83-5.98-9-12.02-9-5.18,0-9.22,2.66-9.22,7.2,0,3.17,1.94,5.98,5.18,8.06l7.27,4.61c6.26,3.96,8.78,7.49,8.78,13.68,0,2.52-.65,4.68-1.66,6.55,1.37-1.87,2.09-4.25,2.09-6.62,0-7.13-3.17-10.15-8.28-13.68l-7.13-4.97c-2.52-1.73-5.9-3.89-5.9-7.63,0-3.46,2.66-6.77,8.86-6.77,5.62,0,10.01,3.96,11.16,9.36l-.5.43c-1.15-5.54-5.18-9-10.8-9s-7.78,3.38-7.78,5.98c0,2.3,1.08,4.39,5.26,7.13l7.27,4.82ZM77.41,17.43c-.72-2.52-2.52-5.33-5.18-6.91.79-.36,1.94-.58,3.31-.58,4.03,0,7.85,2.59,8.93,7.49h-.94c-.58-1.8-1.94-4.25-3.24-5.33,1.08,1.22,2.16,3.6,2.66,5.33h-1.73c-.65-2.02-2.16-4.32-3.53-5.33,1.01,1.01,2.45,3.53,2.95,5.33h-1.8c-.58-1.94-1.8-4.03-3.74-5.33,1.51,1.15,2.88,3.89,3.17,5.33h-.86Z"/>
        <path class="cls-3" d="M114.42,47.32c-6.55-4.32-10.51-11.88-10.22-20.52,0,13.83,10.44,23.47,24.63,23.47,5.33,0,9.86-1.3,13.47-3.24-5.98,5.26-11.74,6.7-17.71,6.7-13.83,0-27.07-9.36-27.07-26.93.29,10.01,5.47,18.87,13.83,22.83-7.92-5.04-11.81-13.54-11.59-22.83.43,9.79,5.11,17.57,13.03,21.6-6.91-4.68-11.09-12.31-10.8-21.6.29,8.78,4.82,16.63,12.46,20.52ZM106.14,26.79c0-9.07,5.62-16.85,14.19-16.85,2.02,0,4.03.5,5.76,1.37-6.77.65-13.25,5.4-13.25,15.63s7.92,15.63,15.99,15.63c6.7,0,10.66-2.52,13.18-5.18v-9.07l.5,9.22c-4.18,4.75-10.23,5.54-13.68,5.54-10.01,0-16.49-6.7-16.49-16.27,0-4.03.65-7.7,3.24-10.87-2.74,2.88-4.54,6.62-4.54,10.87,0,10.01,8.71,16.78,17.79,16.78,6.26,0,10.8-1.44,14.98-5.69l.43-8.86.58,9.22c-4.61,5.47-12.46,6.91-15.99,6.91-11.59,0-18.65-7.13-18.65-18.36,0-3.82.22-6.84,3.1-11.23-2.74,3.17-4.46,7.27-4.46,11.23,0,11.31,9.22,18.87,20.02,18.87,6.12,0,13.03-2.09,17.14-7.06l.5-8.86.58,9.15c-5.9,7.27-15.41,8.35-18.22,8.35-11.88,0-20.88-6.98-20.88-20.45,0-4.68.79-7.85,3.1-11.67-2.81,3.38-4.46,7.92-4.46,11.67,0,11.74,9.36,20.95,22.25,20.95,7.06,0,14.91-2.3,19.51-8.5l.36-8.78v8.93c-3.17,4.39-9.65,8.93-19.87,8.93-13.03,0-22.68-8.71-22.68-21.53ZM142.43,14.48c-1.51-3.24-3.89-6.26-6.48-8.57,2.95,2.23,5.62,5.26,7.27,8.57h-.79ZM143.08,20.82h-5.62l4.9-4.39h5.62l-4.9,4.39ZM143.8,14.48c-1.15-3.1-3.24-6.19-5.9-8.57,3.1,2.16,5.9,5.18,7.56,8.57h-1.66ZM146.03,14.48c-1.15-3.1-3.31-6.26-6.12-8.64,3.1,2.02,6.12,5.26,7.78,8.64h-1.66ZM148.26,14.48c-1.15-3.1-4.03-6.34-6.91-8.78,3.1,2.09,6.12,5.47,7.7,8.78h-.79Z"/>
      </g>
    </g>
  </g>
</svg>